<svg xmlns="http://www.w3.org/2000/svg" viewBox="0 0 104.89 104.85"><defs><style>.cls-1{fill:#fff;stroke:#fff;stroke-miterlimit:10;}</style></defs><g id="Capa_2" data-name="Capa 2"><g id="Capa_1-2" data-name="Capa 1"><path class="cls-1" d="M52.52,3a49.37,49.37,0,0,1,4.2,98.55,22.85,22.85,0,0,1-4.2.26,48.22,48.22,0,0,1-10.71-1.15A49.41,49.41,0,0,1,52.52,3m0-2.53A52,52,0,0,0,.5,52.4a52.5,52.5,0,0,0,40.74,50.77,52.93,52.93,0,0,0,11.28,1.18,31.16,31.16,0,0,0,4.63-.23C83.53,102,104.39,79.27,104.39,52.4A52,52,0,0,0,52.52.5Z"/><path class="cls-1" d="M58.12,42c.76-.9,2.29-1.54,4.47-1.54a26,26,0,0,1,6.75.94l1.92-10.36A36.6,36.6,0,0,0,59,29.31c-4.21,0-7.53.64-10.2,2.18a11.3,11.3,0,0,0-5.48,5.6c-1,2.19-1.53,5.85-1.53,10.45v4.08H33.63V63.45h8.18v37.24a48.22,48.22,0,0,0,10.71,1.15,22.85,22.85,0,0,0,4.2-.26V63.45H67.55V51.62H56.72V47.8C56.72,44.87,57.11,43.08,58.12,42Z"/></g></g></svg>