<svg xmlns="http://www.w3.org/2000/svg" viewBox="0 0 104.87 104.89"><defs><style>.cls-1,.cls-2{fill:#fff;stroke:#fff;stroke-miterlimit:10;}.cls-2{fill-rule:evenodd;}</style></defs><g id="Capa_2" data-name="Capa 2"><g id="Capa_1-2" data-name="Capa 1"><path class="cls-1" d="M52.42,3A49.42,49.42,0,1,1,3,52.45,49.42,49.42,0,0,1,52.42,3m0-2.53a51.95,51.95,0,1,0,52,52A52,52,0,0,0,52.42.5Z"/><path class="cls-2" d="M72.09,25.78H32.8c-4.67,0-7.09,2.49-7.09,7.14V72.13c0,4.52,2.49,7,6.86,7H72.09c4.56,0,7.06-2.46,7.06-7V32.76C79.15,28.27,76.65,25.78,72.09,25.78Zm-4.33,6.06c5.29,0,5.29,0,5.29,5.29s0,5.16-5.2,5.16-5.25,0-5.25-5.25S62.6,31.84,67.76,31.84ZM52.47,42.09A10.34,10.34,0,1,1,42.06,52.35,10.57,10.57,0,0,1,52.47,42.09ZM73.05,69.9c0,2.49-.69,3.18-3.17,3.18H35c-2.44,0-3.13-.69-3.13-3.18,0-6.45,0-13-.09-19.48,0-1.84.5-2.24,2.21-2.19,2.44.21,2.48.09,2.21,2.49A16.36,16.36,0,1,0,68.5,49.43c-.19-1,0-1.11.87-1.11,3.68-.3,3.68-.34,3.68,3.48Z"/></g></g></svg>