<svg xmlns="http://www.w3.org/2000/svg" viewBox="0 0 105 104.95"><defs><style>.cls-1{fill:#fff;}</style></defs><g id="Capa_2" data-name="Capa 2"><g id="Capa_1-2" data-name="Capa 1"><path class="cls-1" d="M52.57,2.56a49.89,49.89,0,0,1,4.25,99.6,23.34,23.34,0,0,1-4.25.26,48.62,48.62,0,0,1-10.82-1.16A49.94,49.94,0,0,1,52.57,2.56m0-2.56A52.59,52.59,0,0,0,0,52.45a53.07,53.07,0,0,0,41.18,51.32A53.32,53.32,0,0,0,52.57,105a32,32,0,0,0,4.69-.23C83.92,102.56,105,79.61,105,52.45A52.52,52.52,0,0,0,52.57,0Z"/><path class="cls-1" d="M82.55,45.4a16.37,16.37,0,0,1-1.72.09A18.69,18.69,0,0,1,65.2,37V65.81A21.27,21.27,0,1,1,43.93,44.55h0c.44,0,.87,0,1.31.06V55.09A11.39,11.39,0,0,0,43.93,55a10.86,10.86,0,1,0,0,21.71c6,0,11.29-4.72,11.29-10.72l.1-48.87h10A18.68,18.68,0,0,0,82.56,33.75V45.4"/></g></g></svg>