<svg xmlns="http://www.w3.org/2000/svg" viewBox="0 0 104.88 104.89"><defs><style>.cls-1,.cls-2{fill:#fff;stroke:#fff;stroke-miterlimit:10;}.cls-2{fill-rule:evenodd;}</style></defs><g id="Capa_2" data-name="Capa 2"><g id="Capa_1-2" data-name="Capa 1"><path class="cls-1" d="M52.46,3A49.42,49.42,0,1,1,3,52.45,49.41,49.41,0,0,1,52.46,3m0-2.53a51.95,51.95,0,1,0,51.92,52A52,52,0,0,0,52.46.5Z"/><path class="cls-2" d="M22.55,72.57a28.08,28.08,0,0,0,13.54-2.33A24.21,24.21,0,0,0,41.52,67a13,13,0,0,1-5.62-1.4,12.72,12.72,0,0,1-6.19-6.93c-.28-.69-.28-.69.48-.64A10.61,10.61,0,0,0,35,57.7a14,14,0,0,1-3.07-1.18,13.07,13.07,0,0,1-7-11.08c0-.57.12-.64.65-.39a12.47,12.47,0,0,0,5.08,1.39c-.82-.74-1.54-1.34-2.18-2a13.29,13.29,0,0,1-2.05-14.71c.32-.64.44-.64.87-.13A36.87,36.87,0,0,0,49.9,42.25c.92.18,1.93.18,2.88.39.64.09.71-.21.62-.69a13,13,0,0,1,21.74-11.7,1.45,1.45,0,0,0,1.43.34,24.33,24.33,0,0,0,6.86-2.69,1.3,1.3,0,0,0,.55-.35,12.79,12.79,0,0,1-5.48,7.19,27,27,0,0,0,7-1.82c0,.3-.19.48-.32.74a26.74,26.74,0,0,1-5.39,5.5,1.09,1.09,0,0,0-.48,1,37.78,37.78,0,0,1-9,25.37A35,35,0,0,1,48.66,77.73a36.91,36.91,0,0,1-25.84-5A.44.44,0,0,0,22.55,72.57Z"/></g></g></svg>