<svg xmlns="http://www.w3.org/2000/svg" viewBox="0 0 104.9 104.89"><defs><style>.cls-1,.cls-2{fill:#fff;}.cls-1{stroke:#fff;stroke-miterlimit:10;}</style></defs><g id="Capa_2" data-name="Capa 2"><g id="Capa_1-2" data-name="Capa 1"><path class="cls-1" d="M52.43,3A49.42,49.42,0,1,1,3,52.45,49.42,49.42,0,0,1,52.43,3m0-2.53a51.95,51.95,0,1,0,52,52A52,52,0,0,0,52.43.5Z"/><path class="cls-2" d="M85.84,43.22A14.65,14.65,0,0,0,71.19,28.57H33.72A14.65,14.65,0,0,0,19.07,43.22V60.66A14.65,14.65,0,0,0,33.72,75.31H71.19A14.65,14.65,0,0,0,85.84,60.66Zm-22,10L47,61.56c-.66.35-2.89-.12-2.89-.87V43.62c0-.75,2.25-1.23,2.91-.85L63.1,51.52C63.78,51.9,64.49,52.88,63.8,53.24Z"/></g></g></svg>