<svg xmlns="http://www.w3.org/2000/svg" viewBox="0 0 238.48 99.5"><defs><style>.cls-1{fill:#fff;}</style></defs><g id="Capa_2" data-name="Capa 2"><g id="Capa_1-2" data-name="Capa 1"><ellipse class="cls-1" cx="1.1" cy="97.07" rx="1.1" ry="1.04"/><path class="cls-1" d="M11.72,98.17A1.15,1.15,0,1,0,10.51,97,1.19,1.19,0,0,0,11.72,98.17Z"/><path class="cls-1" d="M22.35,98.24A1.27,1.27,0,1,0,21,97,1.3,1.3,0,0,0,22.35,98.24Z"/><path class="cls-1" d="M33,98.3a1.38,1.38,0,1,0-1.45-1.37A1.42,1.42,0,0,0,33,98.3Z"/><path class="cls-1" d="M43.59,98.36A1.49,1.49,0,1,0,42,96.88,1.52,1.52,0,0,0,43.59,98.36Z"/><path class="cls-1" d="M54.22,98.43a1.6,1.6,0,1,0-1.69-1.6A1.65,1.65,0,0,0,54.22,98.43Z"/><ellipse class="cls-1" cx="64.84" cy="96.78" rx="1.8" ry="1.71"/><path class="cls-1" d="M75.46,98.55a1.82,1.82,0,1,0-1.91-1.81A1.87,1.87,0,0,0,75.46,98.55Z"/><ellipse class="cls-1" cx="86.09" cy="96.69" rx="2.03" ry="1.93"/><ellipse class="cls-1" cx="96.71" cy="96.64" rx="2.15" ry="2.04"/><path class="cls-1" d="M107.33,98.74a2.15,2.15,0,1,0-2.26-2.15A2.21,2.21,0,0,0,107.33,98.74Z"/><path class="cls-1" d="M118,98.8a2.26,2.26,0,1,0-2.39-2.25A2.32,2.32,0,0,0,118,98.8Z"/><path class="cls-1" d="M128.58,98.87a2.37,2.37,0,1,0-2.5-2.37A2.44,2.44,0,0,0,128.58,98.87Z"/><ellipse class="cls-1" cx="139.2" cy="96.45" rx="2.62" ry="2.48"/><ellipse class="cls-1" cx="149.83" cy="96.4" rx="2.73" ry="2.59"/><path class="cls-1" d="M160.45,99.06a2.7,2.7,0,1,0-2.85-2.7A2.78,2.78,0,0,0,160.45,99.06Z"/><path class="cls-1" d="M171.07,99.12a2.81,2.81,0,1,0-3-2.81A2.89,2.89,0,0,0,171.07,99.12Z"/><path class="cls-1" d="M181.69,99.18a2.92,2.92,0,1,0-3.08-2.92A3,3,0,0,0,181.69,99.18Z"/><path class="cls-1" d="M192.32,99.25a3,3,0,1,0-3.2-3A3.12,3.12,0,0,0,192.32,99.25Z"/><path class="cls-1" d="M202.94,99.31a3.14,3.14,0,1,0-3.31-3.14A3.24,3.24,0,0,0,202.94,99.31Z"/><ellipse class="cls-1" cx="213.56" cy="96.12" rx="3.43" ry="3.25"/><ellipse class="cls-1" cx="224.19" cy="96.07" rx="3.55" ry="3.36"/><ellipse class="cls-1" cx="234.81" cy="96.03" rx="3.67" ry="3.47"/><ellipse class="cls-1" cx="1.1" cy="86.78" rx="1.1" ry="1.04"/><path class="cls-1" d="M11.72,87.89a1.16,1.16,0,1,0-1.21-1.15A1.19,1.19,0,0,0,11.72,87.89Z"/><path class="cls-1" d="M22.35,88A1.26,1.26,0,1,0,21,86.69,1.3,1.3,0,0,0,22.35,88Z"/><path class="cls-1" d="M33,88a1.38,1.38,0,1,0-1.45-1.38A1.42,1.42,0,0,0,33,88Z"/><path class="cls-1" d="M43.59,88.08A1.49,1.49,0,1,0,42,86.59,1.53,1.53,0,0,0,43.59,88.08Z"/><ellipse class="cls-1" cx="54.22" cy="86.55" rx="1.68" ry="1.59"/><ellipse class="cls-1" cx="64.84" cy="86.5" rx="1.8" ry="1.71"/><path class="cls-1" d="M75.46,88.27a1.82,1.82,0,1,0-1.91-1.82A1.87,1.87,0,0,0,75.46,88.27Z"/><ellipse class="cls-1" cx="86.09" cy="86.41" rx="2.03" ry="1.93"/><ellipse class="cls-1" cx="96.71" cy="86.36" rx="2.15" ry="2.04"/><path class="cls-1" d="M107.33,88.46a2.15,2.15,0,1,0-2.26-2.15A2.21,2.21,0,0,0,107.33,88.46Z"/><path class="cls-1" d="M118,88.52a2.26,2.26,0,1,0-2.39-2.26A2.32,2.32,0,0,0,118,88.52Z"/><path class="cls-1" d="M128.58,88.58a2.37,2.37,0,1,0-2.5-2.36A2.44,2.44,0,0,0,128.58,88.58Z"/><path class="cls-1" d="M139.2,88.65a2.48,2.48,0,1,0-2.61-2.48A2.55,2.55,0,0,0,139.2,88.65Z"/><path class="cls-1" d="M149.83,88.71a2.59,2.59,0,1,0-2.74-2.59A2.67,2.67,0,0,0,149.83,88.71Z"/><path class="cls-1" d="M160.45,88.77a2.7,2.7,0,1,0-2.85-2.7A2.78,2.78,0,0,0,160.45,88.77Z"/><path class="cls-1" d="M171.07,88.84a2.81,2.81,0,1,0-3-2.81A2.89,2.89,0,0,0,171.07,88.84Z"/><path class="cls-1" d="M181.69,88.9A2.92,2.92,0,1,0,178.61,86,3,3,0,0,0,181.69,88.9Z"/><path class="cls-1" d="M192.32,89a3,3,0,1,0-3.2-3A3.11,3.11,0,0,0,192.32,89Z"/><path class="cls-1" d="M202.94,89a3.15,3.15,0,1,0-3.31-3.15A3.24,3.24,0,0,0,202.94,89Z"/><ellipse class="cls-1" cx="213.56" cy="85.84" rx="3.43" ry="3.25"/><ellipse class="cls-1" cx="224.19" cy="85.79" rx="3.55" ry="3.36"/><ellipse class="cls-1" cx="234.81" cy="85.74" rx="3.67" ry="3.47"/><ellipse class="cls-1" cx="1.1" cy="76.5" rx="1.1" ry="1.04"/><path class="cls-1" d="M11.72,77.61a1.16,1.16,0,1,0-1.21-1.16A1.19,1.19,0,0,0,11.72,77.61Z"/><path class="cls-1" d="M22.35,77.67A1.27,1.27,0,1,0,21,76.41,1.3,1.3,0,0,0,22.35,77.67Z"/><path class="cls-1" d="M33,77.73a1.38,1.38,0,1,0-1.45-1.37A1.41,1.41,0,0,0,33,77.73Z"/><path class="cls-1" d="M43.59,77.8A1.49,1.49,0,1,0,42,76.31,1.53,1.53,0,0,0,43.59,77.8Z"/><ellipse class="cls-1" cx="54.22" cy="76.26" rx="1.68" ry="1.59"/><ellipse class="cls-1" cx="64.84" cy="76.22" rx="1.8" ry="1.71"/><path class="cls-1" d="M75.46,78a1.82,1.82,0,1,0-1.91-1.81A1.87,1.87,0,0,0,75.46,78Z"/><ellipse class="cls-1" cx="86.09" cy="76.12" rx="2.03" ry="1.93"/><path class="cls-1" d="M96.71,78.11a2,2,0,1,0-2.15-2A2.09,2.09,0,0,0,96.71,78.11Z"/><path class="cls-1" d="M107.33,78.17A2.15,2.15,0,1,0,105.07,76,2.21,2.21,0,0,0,107.33,78.17Z"/><path class="cls-1" d="M118,78.24A2.26,2.26,0,1,0,115.57,76,2.32,2.32,0,0,0,118,78.24Z"/><path class="cls-1" d="M128.58,78.3a2.37,2.37,0,1,0-2.5-2.37A2.44,2.44,0,0,0,128.58,78.3Z"/><path class="cls-1" d="M139.2,78.36a2.48,2.48,0,1,0-2.61-2.48A2.55,2.55,0,0,0,139.2,78.36Z"/><ellipse class="cls-1" cx="149.83" cy="75.84" rx="2.73" ry="2.59"/><path class="cls-1" d="M160.45,78.49a2.7,2.7,0,1,0-2.85-2.7A2.78,2.78,0,0,0,160.45,78.49Z"/><path class="cls-1" d="M171.07,78.55a2.81,2.81,0,1,0-3-2.81A2.89,2.89,0,0,0,171.07,78.55Z"/><path class="cls-1" d="M181.69,78.62a2.93,2.93,0,1,0-3.08-2.92A3,3,0,0,0,181.69,78.62Z"/><path class="cls-1" d="M192.32,78.68a3,3,0,1,0-3.2-3A3.12,3.12,0,0,0,192.32,78.68Z"/><path class="cls-1" d="M202.94,78.74a3.14,3.14,0,1,0-3.31-3.14A3.23,3.23,0,0,0,202.94,78.74Z"/><ellipse class="cls-1" cx="213.56" cy="75.55" rx="3.43" ry="3.25"/><ellipse class="cls-1" cx="224.19" cy="75.51" rx="3.55" ry="3.36"/><ellipse class="cls-1" cx="234.81" cy="75.46" rx="3.67" ry="3.47"/><path class="cls-1" d="M1.1,67.26a1,1,0,1,0,0-2.08,1,1,0,1,0,0,2.08Z"/><path class="cls-1" d="M11.72,67.32a1.15,1.15,0,1,0-1.21-1.15A1.19,1.19,0,0,0,11.72,67.32Z"/><path class="cls-1" d="M22.35,67.39A1.27,1.27,0,1,0,21,66.12,1.3,1.3,0,0,0,22.35,67.39Z"/><path class="cls-1" d="M33,67.45a1.38,1.38,0,1,0-1.45-1.38A1.42,1.42,0,0,0,33,67.45Z"/><path class="cls-1" d="M43.59,67.51A1.49,1.49,0,1,0,42,66,1.52,1.52,0,0,0,43.59,67.51Z"/><ellipse class="cls-1" cx="54.22" cy="65.98" rx="1.68" ry="1.59"/><ellipse class="cls-1" cx="64.84" cy="65.93" rx="1.8" ry="1.71"/><path class="cls-1" d="M75.46,67.7a1.82,1.82,0,1,0-1.91-1.81A1.87,1.87,0,0,0,75.46,67.7Z"/><ellipse class="cls-1" cx="86.09" cy="65.84" rx="2.03" ry="1.93"/><path class="cls-1" d="M96.71,67.83a2,2,0,1,0-2.15-2A2.09,2.09,0,0,0,96.71,67.83Z"/><path class="cls-1" d="M107.33,67.89a2.15,2.15,0,1,0-2.26-2.15A2.21,2.21,0,0,0,107.33,67.89Z"/><path class="cls-1" d="M118,68a2.26,2.26,0,1,0-2.39-2.25A2.32,2.32,0,0,0,118,68Z"/><path class="cls-1" d="M128.58,68a2.37,2.37,0,1,0-2.5-2.37A2.44,2.44,0,0,0,128.58,68Z"/><ellipse class="cls-1" cx="139.2" cy="65.6" rx="2.62" ry="2.48"/><ellipse class="cls-1" cx="149.83" cy="65.55" rx="2.73" ry="2.59"/><path class="cls-1" d="M160.45,68.21a2.7,2.7,0,1,0-2.85-2.7A2.78,2.78,0,0,0,160.45,68.21Z"/><path class="cls-1" d="M171.07,68.27a2.81,2.81,0,1,0-3-2.81A2.89,2.89,0,0,0,171.07,68.27Z"/><path class="cls-1" d="M181.69,68.33a2.92,2.92,0,1,0-3.08-2.92A3,3,0,0,0,181.69,68.33Z"/><path class="cls-1" d="M192.32,68.4a3,3,0,1,0-3.2-3A3.12,3.12,0,0,0,192.32,68.4Z"/><path class="cls-1" d="M202.94,68.46a3.15,3.15,0,1,0-3.31-3.14A3.24,3.24,0,0,0,202.94,68.46Z"/><ellipse class="cls-1" cx="213.56" cy="65.27" rx="3.43" ry="3.25"/><ellipse class="cls-1" cx="224.19" cy="65.22" rx="3.55" ry="3.36"/><path class="cls-1" d="M234.81,68.65a3.48,3.48,0,1,0-3.66-3.47A3.58,3.58,0,0,0,234.81,68.65Z"/><path class="cls-1" d="M1.1,57a1,1,0,1,0,0-2.09A1,1,0,1,0,1.1,57Z"/><path class="cls-1" d="M11.72,57a1.16,1.16,0,1,0-1.21-1.15A1.19,1.19,0,0,0,11.72,57Z"/><path class="cls-1" d="M22.35,57.1A1.26,1.26,0,1,0,21,55.84,1.3,1.3,0,0,0,22.35,57.1Z"/><path class="cls-1" d="M33,57.16a1.37,1.37,0,1,0-1.45-1.37A1.41,1.41,0,0,0,33,57.16Z"/><path class="cls-1" d="M43.59,57.23A1.49,1.49,0,1,0,42,55.74,1.53,1.53,0,0,0,43.59,57.23Z"/><ellipse class="cls-1" cx="54.22" cy="55.7" rx="1.68" ry="1.59"/><ellipse class="cls-1" cx="64.84" cy="55.65" rx="1.8" ry="1.71"/><path class="cls-1" d="M75.46,57.42a1.82,1.82,0,1,0-1.91-1.82A1.88,1.88,0,0,0,75.46,57.42Z"/><ellipse class="cls-1" cx="86.09" cy="55.55" rx="2.03" ry="1.93"/><path class="cls-1" d="M96.71,57.54a2,2,0,1,0-2.15-2A2.09,2.09,0,0,0,96.71,57.54Z"/><path class="cls-1" d="M107.33,57.61a2.15,2.15,0,1,0-2.26-2.15A2.21,2.21,0,0,0,107.33,57.61Z"/><path class="cls-1" d="M118,57.67a2.26,2.26,0,1,0-2.39-2.26A2.32,2.32,0,0,0,118,57.67Z"/><path class="cls-1" d="M128.58,57.73a2.37,2.37,0,1,0-2.5-2.36A2.44,2.44,0,0,0,128.58,57.73Z"/><ellipse class="cls-1" cx="139.2" cy="55.32" rx="2.62" ry="2.48"/><ellipse class="cls-1" cx="149.83" cy="55.27" rx="2.73" ry="2.59"/><path class="cls-1" d="M160.45,57.92a2.7,2.7,0,1,0-2.85-2.7A2.78,2.78,0,0,0,160.45,57.92Z"/><path class="cls-1" d="M171.07,58a2.81,2.81,0,1,0-3-2.81A2.89,2.89,0,0,0,171.07,58Z"/><path class="cls-1" d="M181.69,58.05a2.92,2.92,0,1,0-3.08-2.92A3,3,0,0,0,181.69,58.05Z"/><path class="cls-1" d="M192.32,58.11a3,3,0,1,0-3.2-3A3.11,3.11,0,0,0,192.32,58.11Z"/><path class="cls-1" d="M202.94,58.18A3.15,3.15,0,1,0,199.63,55,3.24,3.24,0,0,0,202.94,58.18Z"/><ellipse class="cls-1" cx="213.56" cy="54.99" rx="3.43" ry="3.25"/><ellipse class="cls-1" cx="224.19" cy="54.94" rx="3.55" ry="3.36"/><path class="cls-1" d="M234.81,58.37a3.48,3.48,0,1,0-3.66-3.48A3.58,3.58,0,0,0,234.81,58.37Z"/><ellipse class="cls-1" cx="1.1" cy="45.65" rx="1.1" ry="1.04"/><ellipse class="cls-1" cx="11.72" cy="45.6" rx="1.22" ry="1.15"/><path class="cls-1" d="M22.35,46.82A1.27,1.27,0,1,0,21,45.56,1.3,1.3,0,0,0,22.35,46.82Z"/><path class="cls-1" d="M33,46.88a1.38,1.38,0,1,0-1.45-1.37A1.41,1.41,0,0,0,33,46.88Z"/><path class="cls-1" d="M43.59,46.94A1.48,1.48,0,1,0,42,45.46,1.52,1.52,0,0,0,43.59,46.94Z"/><ellipse class="cls-1" cx="54.22" cy="45.41" rx="1.68" ry="1.59"/><ellipse class="cls-1" cx="64.84" cy="45.37" rx="1.8" ry="1.71"/><path class="cls-1" d="M75.46,47.13a1.82,1.82,0,1,0-1.91-1.81A1.87,1.87,0,0,0,75.46,47.13Z"/><path class="cls-1" d="M86.09,47.2a1.93,1.93,0,1,0-2-1.93A2,2,0,0,0,86.09,47.2Z"/><path class="cls-1" d="M96.71,47.26a2,2,0,1,0-2.15-2A2.09,2.09,0,0,0,96.71,47.26Z"/><path class="cls-1" d="M107.33,47.32a2.15,2.15,0,1,0-2.26-2.14A2.21,2.21,0,0,0,107.33,47.32Z"/><path class="cls-1" d="M118,47.39a2.26,2.26,0,1,0-2.39-2.26A2.32,2.32,0,0,0,118,47.39Z"/><path class="cls-1" d="M128.58,47.45a2.37,2.37,0,1,0-2.5-2.37A2.44,2.44,0,0,0,128.58,47.45Z"/><ellipse class="cls-1" cx="139.2" cy="45.03" rx="2.62" ry="2.48"/><ellipse class="cls-1" cx="149.83" cy="44.99" rx="2.73" ry="2.59"/><path class="cls-1" d="M160.45,47.64a2.7,2.7,0,1,0-2.85-2.7A2.78,2.78,0,0,0,160.45,47.64Z"/><path class="cls-1" d="M171.07,47.7a2.81,2.81,0,1,0-3-2.81A2.89,2.89,0,0,0,171.07,47.7Z"/><path class="cls-1" d="M181.69,47.77a2.93,2.93,0,1,0-3.08-2.93A3,3,0,0,0,181.69,47.77Z"/><path class="cls-1" d="M192.32,47.83a3,3,0,1,0-3.2-3A3.12,3.12,0,0,0,192.32,47.83Z"/><path class="cls-1" d="M202.94,47.89a3.14,3.14,0,1,0-3.31-3.14A3.23,3.23,0,0,0,202.94,47.89Z"/><path class="cls-1" d="M213.56,48a3.26,3.26,0,1,0-3.43-3.26A3.35,3.35,0,0,0,213.56,48Z"/><path class="cls-1" d="M224.19,48a3.37,3.37,0,1,0-3.55-3.36A3.46,3.46,0,0,0,224.19,48Z"/><path class="cls-1" d="M234.81,48.08a3.48,3.48,0,1,0-3.66-3.47A3.57,3.57,0,0,0,234.81,48.08Z"/><ellipse class="cls-1" cx="1.1" cy="35.37" rx="1.1" ry="1.04"/><ellipse class="cls-1" cx="11.72" cy="35.32" rx="1.22" ry="1.15"/><path class="cls-1" d="M22.35,36.53A1.26,1.26,0,1,0,21,35.27,1.3,1.3,0,0,0,22.35,36.53Z"/><path class="cls-1" d="M33,36.6a1.38,1.38,0,1,0-1.45-1.38A1.42,1.42,0,0,0,33,36.6Z"/><path class="cls-1" d="M43.59,36.66A1.49,1.49,0,1,0,42,35.18,1.52,1.52,0,0,0,43.59,36.66Z"/><ellipse class="cls-1" cx="54.22" cy="35.13" rx="1.68" ry="1.59"/><ellipse class="cls-1" cx="64.84" cy="35.08" rx="1.8" ry="1.71"/><path class="cls-1" d="M75.46,36.85A1.82,1.82,0,1,0,73.55,35,1.87,1.87,0,0,0,75.46,36.85Z"/><path class="cls-1" d="M86.09,36.91a1.93,1.93,0,1,0-2-1.92A2,2,0,0,0,86.09,36.91Z"/><path class="cls-1" d="M96.71,37a2,2,0,1,0-2.15-2A2.09,2.09,0,0,0,96.71,37Z"/><path class="cls-1" d="M107.33,37a2.15,2.15,0,1,0-2.26-2.15A2.21,2.21,0,0,0,107.33,37Z"/><path class="cls-1" d="M118,37.1a2.26,2.26,0,1,0-2.39-2.25A2.32,2.32,0,0,0,118,37.1Z"/><path class="cls-1" d="M128.58,37.17a2.37,2.37,0,1,0-2.5-2.37A2.44,2.44,0,0,0,128.58,37.17Z"/><ellipse class="cls-1" cx="139.2" cy="34.75" rx="2.62" ry="2.48"/><ellipse class="cls-1" cx="149.83" cy="34.7" rx="2.73" ry="2.59"/><path class="cls-1" d="M160.45,37.36a2.7,2.7,0,1,0-2.85-2.7A2.78,2.78,0,0,0,160.45,37.36Z"/><path class="cls-1" d="M171.07,37.42a2.81,2.81,0,1,0-3-2.81A2.89,2.89,0,0,0,171.07,37.42Z"/><path class="cls-1" d="M181.69,37.48a2.92,2.92,0,1,0-3.08-2.92A3,3,0,0,0,181.69,37.48Z"/><path class="cls-1" d="M192.32,37.55a3,3,0,1,0-3.2-3A3.12,3.12,0,0,0,192.32,37.55Z"/><path class="cls-1" d="M202.94,37.61a3.15,3.15,0,1,0-3.31-3.14A3.24,3.24,0,0,0,202.94,37.61Z"/><path class="cls-1" d="M213.56,37.67a3.25,3.25,0,1,0-3.43-3.25A3.35,3.35,0,0,0,213.56,37.67Z"/><ellipse class="cls-1" cx="224.19" cy="34.37" rx="3.55" ry="3.36"/><path class="cls-1" d="M234.81,37.8a3.48,3.48,0,1,0-3.66-3.48A3.58,3.58,0,0,0,234.81,37.8Z"/><ellipse class="cls-1" cx="1.1" cy="25.08" rx="1.1" ry="1.04"/><ellipse class="cls-1" cx="11.72" cy="25.04" rx="1.22" ry="1.15"/><path class="cls-1" d="M22.35,26.25A1.26,1.26,0,1,0,21,25,1.3,1.3,0,0,0,22.35,26.25Z"/><path class="cls-1" d="M33,26.31a1.37,1.37,0,1,0-1.45-1.37A1.41,1.41,0,0,0,33,26.31Z"/><path class="cls-1" d="M43.59,26.38A1.49,1.49,0,1,0,42,24.89,1.53,1.53,0,0,0,43.59,26.38Z"/><ellipse class="cls-1" cx="54.22" cy="24.85" rx="1.68" ry="1.59"/><ellipse class="cls-1" cx="64.84" cy="24.8" rx="1.8" ry="1.71"/><path class="cls-1" d="M75.46,26.57a1.82,1.82,0,1,0-1.91-1.82A1.88,1.88,0,0,0,75.46,26.57Z"/><path class="cls-1" d="M86.09,26.63a1.93,1.93,0,1,0-2-1.93A2,2,0,0,0,86.09,26.63Z"/><path class="cls-1" d="M96.71,26.69a2,2,0,1,0-2.15-2A2.09,2.09,0,0,0,96.71,26.69Z"/><path class="cls-1" d="M107.33,26.76a2.15,2.15,0,1,0-2.26-2.15A2.21,2.21,0,0,0,107.33,26.76Z"/><path class="cls-1" d="M118,26.82a2.26,2.26,0,1,0-2.39-2.26A2.32,2.32,0,0,0,118,26.82Z"/><path class="cls-1" d="M128.58,26.88a2.37,2.37,0,1,0-2.5-2.37A2.44,2.44,0,0,0,128.58,26.88Z"/><ellipse class="cls-1" cx="139.2" cy="24.47" rx="2.62" ry="2.48"/><ellipse class="cls-1" cx="149.83" cy="24.42" rx="2.73" ry="2.59"/><path class="cls-1" d="M160.45,27.07a2.7,2.7,0,1,0-2.85-2.7A2.78,2.78,0,0,0,160.45,27.07Z"/><path class="cls-1" d="M171.07,27.14a2.82,2.82,0,1,0-3-2.81A2.89,2.89,0,0,0,171.07,27.14Z"/><path class="cls-1" d="M181.69,27.2a2.92,2.92,0,1,0-3.08-2.92A3,3,0,0,0,181.69,27.2Z"/><path class="cls-1" d="M192.32,27.26a3,3,0,1,0-3.2-3A3.11,3.11,0,0,0,192.32,27.26Z"/><path class="cls-1" d="M202.94,27.33a3.15,3.15,0,1,0-3.31-3.15A3.24,3.24,0,0,0,202.94,27.33Z"/><path class="cls-1" d="M213.56,27.39a3.26,3.26,0,1,0-3.43-3.25A3.35,3.35,0,0,0,213.56,27.39Z"/><ellipse class="cls-1" cx="224.19" cy="24.09" rx="3.55" ry="3.36"/><ellipse class="cls-1" cx="234.81" cy="24.04" rx="3.67" ry="3.47"/><ellipse class="cls-1" cx="1.1" cy="14.8" rx="1.1" ry="1.04"/><ellipse class="cls-1" cx="11.72" cy="14.75" rx="1.22" ry="1.15"/><path class="cls-1" d="M22.35,16A1.27,1.27,0,1,0,21,14.7,1.3,1.3,0,0,0,22.35,16Z"/><path class="cls-1" d="M33,16a1.38,1.38,0,1,0-1.45-1.37A1.41,1.41,0,0,0,33,16Z"/><path class="cls-1" d="M43.59,16.09A1.48,1.48,0,1,0,42,14.61,1.52,1.52,0,0,0,43.59,16.09Z"/><path class="cls-1" d="M54.22,16.16a1.6,1.6,0,1,0-1.69-1.6A1.65,1.65,0,0,0,54.22,16.16Z"/><path class="cls-1" d="M64.84,16.22a1.71,1.71,0,1,0-1.8-1.7A1.75,1.75,0,0,0,64.84,16.22Z"/><path class="cls-1" d="M75.46,16.28a1.82,1.82,0,1,0-1.91-1.81A1.87,1.87,0,0,0,75.46,16.28Z"/><path class="cls-1" d="M86.09,16.35a1.93,1.93,0,1,0-2-1.93A2,2,0,0,0,86.09,16.35Z"/><path class="cls-1" d="M96.71,16.41a2,2,0,1,0-2.15-2A2.09,2.09,0,0,0,96.71,16.41Z"/><path class="cls-1" d="M107.33,16.47a2.15,2.15,0,1,0-2.26-2.14A2.21,2.21,0,0,0,107.33,16.47Z"/><path class="cls-1" d="M118,16.54a2.26,2.26,0,1,0-2.39-2.26A2.32,2.32,0,0,0,118,16.54Z"/><path class="cls-1" d="M128.58,16.6a2.37,2.37,0,1,0-2.5-2.37A2.44,2.44,0,0,0,128.58,16.6Z"/><ellipse class="cls-1" cx="139.2" cy="14.18" rx="2.62" ry="2.48"/><ellipse class="cls-1" cx="149.83" cy="14.14" rx="2.73" ry="2.59"/><path class="cls-1" d="M160.45,16.79a2.78,2.78,0,0,0,2.85-2.7,2.85,2.85,0,0,0-5.7,0A2.78,2.78,0,0,0,160.45,16.79Z"/><path class="cls-1" d="M171.07,16.85A2.89,2.89,0,0,0,174,14a3,3,0,0,0-5.93,0A2.89,2.89,0,0,0,171.07,16.85Z"/><path class="cls-1" d="M181.69,16.92A3,3,0,0,0,184.78,14a3.09,3.09,0,0,0-6.17,0A3,3,0,0,0,181.69,16.92Z"/><path class="cls-1" d="M192.32,17a3.12,3.12,0,0,0,3.2-3,3.2,3.2,0,0,0-6.4,0A3.12,3.12,0,0,0,192.32,17Z"/><path class="cls-1" d="M202.94,17a3.23,3.23,0,0,0,3.32-3.14,3.32,3.32,0,0,0-6.63,0A3.22,3.22,0,0,0,202.94,17Z"/><ellipse class="cls-1" cx="213.56" cy="13.85" rx="3.43" ry="3.25"/><ellipse class="cls-1" cx="224.19" cy="13.8" rx="3.55" ry="3.36"/><ellipse class="cls-1" cx="234.81" cy="13.76" rx="3.67" ry="3.47"/><ellipse class="cls-1" cx="1.1" cy="4.52" rx="1.1" ry="1.04"/><ellipse class="cls-1" cx="11.72" cy="4.47" rx="1.22" ry="1.15"/><path class="cls-1" d="M22.35,5.68a1.3,1.3,0,0,0,1.33-1.26,1.34,1.34,0,0,0-2.67,0A1.3,1.3,0,0,0,22.35,5.68Z"/><path class="cls-1" d="M33,5.75a1.42,1.42,0,0,0,1.45-1.38,1.45,1.45,0,0,0-2.9,0A1.42,1.42,0,0,0,33,5.75Z"/><path class="cls-1" d="M43.59,5.81a1.52,1.52,0,0,0,1.57-1.48,1.57,1.57,0,0,0-3.13,0A1.52,1.52,0,0,0,43.59,5.81Z"/><path class="cls-1" d="M54.22,5.87A1.64,1.64,0,0,0,55.9,4.28a1.69,1.69,0,0,0-3.37,0A1.64,1.64,0,0,0,54.22,5.87Z"/><path class="cls-1" d="M64.84,5.94a1.76,1.76,0,0,0,1.8-1.71,1.8,1.8,0,0,0-3.6,0A1.76,1.76,0,0,0,64.84,5.94Z"/><path class="cls-1" d="M75.46,6a1.87,1.87,0,0,0,1.92-1.82,1.92,1.92,0,0,0-3.83,0A1.86,1.86,0,0,0,75.46,6Z"/><path class="cls-1" d="M86.09,6.06a2,2,0,0,0,2-1.92,2,2,0,0,0-4.07,0A2,2,0,0,0,86.09,6.06Z"/><path class="cls-1" d="M96.71,6.13a2.1,2.1,0,0,0,2.15-2,2.15,2.15,0,0,0-4.3,0A2.1,2.1,0,0,0,96.71,6.13Z"/><path class="cls-1" d="M107.33,6.19A2.21,2.21,0,0,0,109.6,4a2.27,2.27,0,0,0-4.53,0A2.2,2.2,0,0,0,107.33,6.19Z"/><path class="cls-1" d="M118,6.25A2.32,2.32,0,0,0,120.34,4a2.39,2.39,0,0,0-4.77,0A2.33,2.33,0,0,0,118,6.25Z"/><path class="cls-1" d="M128.58,6.32A2.44,2.44,0,0,0,131.08,4a2.5,2.5,0,0,0-5,0A2.44,2.44,0,0,0,128.58,6.32Z"/><ellipse class="cls-1" cx="139.2" cy="3.9" rx="2.62" ry="2.48"/><ellipse class="cls-1" cx="149.83" cy="3.85" rx="2.73" ry="2.59"/><path class="cls-1" d="M160.45,6.51a2.78,2.78,0,0,0,2.85-2.7,2.85,2.85,0,0,0-5.7,0A2.78,2.78,0,0,0,160.45,6.51Z"/><path class="cls-1" d="M171.07,6.57a2.89,2.89,0,0,0,3-2.81,3,3,0,0,0-5.93,0A2.89,2.89,0,0,0,171.07,6.57Z"/><path class="cls-1" d="M181.69,6.63a3,3,0,0,0,3.09-2.92,3.09,3.09,0,0,0-6.17,0A3,3,0,0,0,181.69,6.63Z"/><path class="cls-1" d="M192.32,6.7a3.12,3.12,0,0,0,3.2-3,3.2,3.2,0,0,0-6.4,0A3.12,3.12,0,0,0,192.32,6.7Z"/><path class="cls-1" d="M202.94,6.76a3.24,3.24,0,0,0,3.32-3.14,3.32,3.32,0,0,0-6.63,0A3.23,3.23,0,0,0,202.94,6.76Z"/><ellipse class="cls-1" cx="213.56" cy="3.57" rx="3.43" ry="3.25"/><ellipse class="cls-1" cx="224.19" cy="3.52" rx="3.55" ry="3.36"/><ellipse class="cls-1" cx="234.81" cy="3.47" rx="3.67" ry="3.47"/></g></g></svg>