<svg xmlns="http://www.w3.org/2000/svg" viewBox="0 0 106.32 65.8"><defs><style>.cls-1{fill:#fab545;}</style></defs><g id="Capa_2" data-name="Capa 2"><g id="Capa_1-2" data-name="Capa 1"><path class="cls-1" d="M6.62,65.8A6.54,6.54,0,1,0,0,59.35,6.53,6.53,0,0,0,6.62,65.8Z"/><path class="cls-1" d="M29.93,65.5a6.54,6.54,0,1,0-6.62-6.45A6.53,6.53,0,0,0,29.93,65.5Z"/><path class="cls-1" d="M53.24,65.21a6.54,6.54,0,1,0-6.62-6.46A6.55,6.55,0,0,0,53.24,65.21Z"/><path class="cls-1" d="M76.55,64.91a6.54,6.54,0,1,0-6.61-6.45A6.54,6.54,0,0,0,76.55,64.91Z"/><path class="cls-1" d="M99.87,64.62a6.54,6.54,0,1,0-6.62-6.46A6.53,6.53,0,0,0,99.87,64.62Z"/><path class="cls-1" d="M52.94,41.68a6.54,6.54,0,1,0-6.62-6.46A6.55,6.55,0,0,0,52.94,41.68Z"/><path class="cls-1" d="M76.26,41.38a6.54,6.54,0,1,0-6.62-6.45A6.53,6.53,0,0,0,76.26,41.38Z"/><path class="cls-1" d="M99.57,41.09A6.54,6.54,0,1,0,93,34.63,6.53,6.53,0,0,0,99.57,41.09Z"/><path class="cls-1" d="M99.21,13.07a6.54,6.54,0,1,0-6.62-6.45A6.53,6.53,0,0,0,99.21,13.07Z"/></g></g></svg>