<svg xmlns="http://www.w3.org/2000/svg" viewBox="0 0 106.57 64.62"><defs><style>.cls-1{fill:#fab545;}</style></defs><g id="Capa_2" data-name="Capa 2"><g id="Capa_1-2" data-name="Capa 1"><path class="cls-1" d="M100.06.44A6.54,6.54,0,1,0,106.57,7,6.53,6.53,0,0,0,100.06.44Z"/><path class="cls-1" d="M76.75.33A6.54,6.54,0,1,0,83.26,6.9,6.54,6.54,0,0,0,76.75.33Z"/><path class="cls-1" d="M53.44.22a6.54,6.54,0,1,0,6.5,6.57A6.54,6.54,0,0,0,53.44.22Z"/><path class="cls-1" d="M30.12.11a6.54,6.54,0,1,0,6.51,6.57A6.53,6.53,0,0,0,30.12.11Z"/><path class="cls-1" d="M6.81,0a6.54,6.54,0,1,0,6.51,6.57A6.54,6.54,0,0,0,6.81,0Z"/><path class="cls-1" d="M53.33,23.75a6.54,6.54,0,1,0,6.5,6.57A6.54,6.54,0,0,0,53.33,23.75Z"/><path class="cls-1" d="M30,23.64a6.54,6.54,0,1,0,6.51,6.57A6.53,6.53,0,0,0,30,23.64Z"/><path class="cls-1" d="M6.7,23.53a6.54,6.54,0,1,0,6.51,6.57A6.55,6.55,0,0,0,6.7,23.53Z"/><path class="cls-1" d="M6.57,51.55a6.54,6.54,0,1,0,6.5,6.56A6.53,6.53,0,0,0,6.57,51.55Z"/></g></g></svg>