<svg xmlns="http://www.w3.org/2000/svg" viewBox="0 0 47.22 44.81"><defs><style>.cls-1,.cls-2{fill:#f7ed6c;}.cls-2{stroke:#f7ed6c;stroke-miterlimit:10;}</style></defs><g id="Capa_2" data-name="Capa 2"><g id="Capa_1-2" data-name="Capa 1"><path class="cls-1" d="M11.18,22.06a.87.87,0,0,1-1.23,0L2.6,14.71a.87.87,0,0,1,0-1.23L15.82.26a.86.86,0,0,1,1.23,0L24.4,7.61a.87.87,0,0,1,0,1.23Z"/><rect class="cls-1" x="17.57" y="-0.94" width="2.53" height="13.52" rx="0.29" transform="translate(1.4 15.02) rotate(-45)"/><rect class="cls-1" x="15.28" y="1.36" width="2.53" height="13.52" rx="0.29" transform="translate(-0.9 14.07) rotate(-45)"/><rect class="cls-1" x="9.27" y="7.36" width="2.53" height="13.52" rx="0.29" transform="translate(-6.9 11.59) rotate(-45)"/><rect class="cls-1" x="6.98" y="9.66" width="2.53" height="13.52" rx="0.29" transform="translate(-9.2 10.63) rotate(-45)"/><rect class="cls-1" x="10.55" y="5.05" width="5.97" height="12.14" transform="translate(-3.9 12.83) rotate(-45)"/><path class="cls-2" d="M45.88,43.46a2.89,2.89,0,0,1-4.09,0l-.1-.11L16.48,16.94a2,2,0,0,1,2.88-2.88l26.4,25.21.11.11A2.89,2.89,0,0,1,45.88,43.46Z"/><path class="cls-1" d="M40.55,41.83a1,1,0,0,0,0,1.42h0a1,1,0,0,0,1.42,0l3.7-3.69a1,1,0,0,0,0-1.42h0a1,1,0,0,0-1.43,0Z"/><path class="cls-1" d="M23.53,31.57a2.18,2.18,0,0,1-2.18,2.18H3.46a2.18,2.18,0,0,1-2.17-2.18h0A2.17,2.17,0,0,1,3.46,29.4H21.35a2.17,2.17,0,0,1,2.18,2.17Z"/><rect class="cls-1" y="31.57" width="24.82" height="3.42"/><rect class="cls-1" y="32.58" width="24.82" height="0.56"/></g></g></svg>