<svg xmlns="http://www.w3.org/2000/svg" viewBox="0 0 50.22 29.61"><defs><style>.cls-1{fill:#f7ed6c;stroke:#f7ed6c;stroke-miterlimit:10;}</style></defs><g id="Capa_2" data-name="Capa 2"><g id="Capa_1-2" data-name="Capa 1"><path class="cls-1" d="M7.25,16a2,2,0,0,0-1.17,3.15L5.25,24a.7.7,0,0,0,.16.59.74.74,0,0,0,.55.26h3.4a.77.77,0,0,0,.55-.25.72.72,0,0,0,.17-.58l-.71-5.13a1.88,1.88,0,0,0,.28-1,2,2,0,0,0-1-1.7V13.55l4.48,1.94V26.62a2.5,2.5,0,0,0,2.49,2.49H36.12a2.5,2.5,0,0,0,2.49-2.49V14.81l10.67-4.63a.72.72,0,0,0,.44-.69.75.75,0,0,0-.49-.66L25,.54a.72.72,0,0,0-.5,0C16.14,3.7,2.49,8.71,1.22,8.79a.71.71,0,0,0-.7.58.72.72,0,0,0,.42.81l6.31,2.74Zm-.43,7.47L7.57,19a.73.73,0,0,0-.25-.68.51.51,0,0,1-.2-.41.54.54,0,0,1,.54-.54.54.54,0,0,1,.41.89.72.72,0,0,0-.17.58l.63,4.59Zm30.34,3.19a1,1,0,0,1-1,1H15.67a1,1,0,0,1-1-1V16.12l10.19,4.42a.73.73,0,0,0,.58,0l11.76-5.1ZM3.43,9.68C8.68,8,21.28,3.3,24.72,2L47,9.6,25.11,19.09,10.66,12.82l12.2-1.61a4.37,4.37,0,0,0,2.25.53c1.68,0,2.95-.67,2.95-1.56s-1.27-1.56-2.95-1.56c-1.45,0-2.59.5-2.88,1.21L8.08,11.7Zm19.45.5c0-.34.87-.83,2.23-.83s2.22.49,2.22.83-.86.83-2.22.83S22.88,10.52,22.88,10.18Z"/></g></g></svg>