<svg xmlns="http://www.w3.org/2000/svg" viewBox="0 0 47.67 21.63"><defs><style>.cls-1{isolation:isolate;}.cls-2,.cls-6{fill:#f7ed6c;}.cls-3{opacity:0.14;}.cls-3,.cls-5{mix-blend-mode:multiply;}.cls-4{fill:#4d4d4d;}.cls-5{fill:#c7c5ce;}.cls-6{stroke:#f7ed6c;stroke-miterlimit:10;}</style></defs><g class="cls-1"><g id="Capa_2" data-name="Capa 2"><g id="Capa_4" data-name="Capa 4"><path class="cls-2" d="M32.71,21.6h-18c0-4.43,3.14-5.43,3.14-5.43h0a0,0,0,0,0,0,0l.36-.14,2.26-.87a.47.47,0,0,0,.06.15l.41-.15h0l.48-1h.19v-.69a4.9,4.9,0,0,1-1.59-2.84.06.06,0,0,1,0,0,1.69,1.69,0,0,1-.53-1.06c-.1-.71.12-1.34.5-1.41,0,0,0-.22,0-.3a1.34,1.34,0,0,0-.16-.43,2.44,2.44,0,0,1-.32-.79c0-.27.22-.51.34-.72a4.32,4.32,0,0,1,3.57-2.12c1.16,0,2.77.45,2.67,2.09a.71.71,0,0,1,.88,0,1.27,1.27,0,0,1,.48.89,2.6,2.6,0,0,1-.09,1.42h0c.37.08.58.7.48,1.41a1.41,1.41,0,0,1-.69,1.15h-.05a5,5,0,0,1-1.5,2.72h0v.74h.14l.48,1-.31.23.31-.22.56.2a1.34,1.34,0,0,0,.07-.18l2.65,1v0S32.71,17.17,32.71,21.6Z"/><rect class="cls-2" x="35.55" y="12.11" width="4.4" height="2.41"/><path class="cls-2" d="M34.19,9.65a.44.44,0,0,1-.33-.07,1.69,1.69,0,0,1-.64-1.2c-.11-.78.13-1.48.54-1.55h.18A.6.6,0,0,1,34.2,7a1.9,1.9,0,0,1,.53,1.13C34.85,8.89,34.6,9.58,34.19,9.65Z"/><path class="cls-2" d="M42.42,8.38a1.54,1.54,0,0,1-.76,1.26.38.38,0,0,1-.21,0c-.41-.07-.65-.76-.54-1.54A2,2,0,0,1,41.4,7a.65.65,0,0,1,.26-.17.34.34,0,0,1,.22,0h0C42.3,6.92,42.53,7.6,42.42,8.38Z"/><path class="cls-2" d="M41.76,8.24a6.46,6.46,0,0,1-.15,1.4,5.38,5.38,0,0,1-1.64,3,3.27,3.27,0,0,1-4.42.08,5.41,5.41,0,0,1-1.74-3.12,6.55,6.55,0,0,1-.13-1.34,6.48,6.48,0,0,1,.15-1.41.51.51,0,0,1,0-.13.57.57,0,0,1,0,.14.6.6,0,0,1,.26.14,3,3,0,0,1,.54-1.81,2.46,2.46,0,0,1,1.73-.88A15.64,15.64,0,0,1,39,4a1.9,1.9,0,0,1,1.35.44,3.17,3.17,0,0,0,1,2.55.65.65,0,0,1,.26-.17,2.8,2.8,0,0,1,.06.28A6.74,6.74,0,0,1,41.76,8.24Z"/><polygon class="cls-2" points="37.73 14.53 37.27 15.13 36.69 15.89 35.65 15.13 35.56 15.06 34.82 14.53 34.82 14.53 35.34 13.45 35.56 13.45 37.73 14.53"/><polygon class="cls-2" points="40.63 14.53 39.95 15.02 39.8 15.13 38.76 15.89 38.19 15.13 37.73 14.53 39.9 13.45 40.11 13.45 40.63 14.53"/><g class="cls-3"><polygon class="cls-4" points="35.57 15.08 35.56 15.06 35.55 15.06 35.56 15.06 35.57 15.08"/></g><g class="cls-3"><polygon class="cls-4" points="35.57 15.08 35.56 15.06 35.55 15.06 35.56 15.06 35.57 15.08"/></g><path class="cls-2" d="M41.49,14.83A3.79,3.79,0,0,1,37.8,17a3.78,3.78,0,0,1-3.71-2.15l.73-.27h0l.73.53h0l.09.07,0,0,0,0h0l.2.15.75.55h0l.23-.31.34-.45,0-.05h0l.13-.17.13-.16.16-.22.17.22.16.21.13.17h0l.1.11.45.6,0,0h0l.92-.67.1-.07L40,15l.68-.49Z"/><path class="cls-2" d="M47.67,21.6H28c0-4.86,3.44-6,3.44-6h0l.39-.15,2.48-1a3.58,3.58,0,0,0,3.52,2.14,3.59,3.59,0,0,0,3.51-2.11l2.9,1.08h0S47.67,16.74,47.67,21.6Z"/><polygon class="cls-5" points="30.95 21.6 30.95 19.97 31.6 21.6 30.95 21.6"/><polygon class="cls-2" points="44.71 21.6 44.71 19.97 44.06 21.6 44.71 21.6"/><path class="cls-2" d="M41.72,8c-.42-1.67-2.59-3.26-4-2.38-1.4-.88-3.51.71-3.92,2.38a5.25,5.25,0,0,1,0-2,5,5,0,0,1,.8-2,2.84,2.84,0,0,1,1.33-1.12A2,2,0,0,1,37.75,3a2.07,2.07,0,0,1,1.87-.07A2.89,2.89,0,0,1,41,4a4.85,4.85,0,0,1,.79,2A5.18,5.18,0,0,1,41.72,8Z"/><path class="cls-2" d="M37.72,5.66a5.65,5.65,0,0,0-3.94,2.39C34.2,6.37,36.31,4.78,37.72,5.66Z"/><path class="cls-6" d="M9.11,16.92c0,2.17-4.2,2.32-4.53-1.7l1-.36a1.11,1.11,0,0,0,.07.16A3.7,3.7,0,0,0,9.11,16.92Z"/><path class="cls-2" d="M13.63,15.24c-.33,4-4.52,3.85-4.52,1.68a3.74,3.74,0,0,0,3.44-1.82,1,1,0,0,0,.09-.21Z"/><path class="cls-2" d="M18.21,21.63H0C0,20.32-.31,17,2.65,15.94h0l.39-.15,1.51-.56c.33,4,4.53,3.87,4.53,1.7,0,2.17,4.19,2.32,4.52-1.68l1.94.68v0C18.53,17,18.21,20.32,18.21,21.63Z"/><path class="cls-6" d="M12.55,15.1a3.74,3.74,0,0,1-3.44,1.82A3.7,3.7,0,0,1,5.63,15L7,14.55V12.71h4.21v1.84Z"/><path class="cls-2" d="M12.77,9.46a4.78,4.78,0,0,1-1.66,3.74,3.27,3.27,0,0,1-2,.75,3.18,3.18,0,0,1-2-.71,4.66,4.66,0,0,1-1.7-3.48c0-.1,0-.2,0-.3s0-.2,0-.3a10,10,0,0,0,3.27-.9,4.52,4.52,0,0,0,2.21-1.84,3.71,3.71,0,0,0,1.76,1.8l0,.12a.59.59,0,0,1,0,.13h0A5.36,5.36,0,0,1,12.77,9.46Z"/><path class="cls-2" d="M7.08,13.24a4.66,4.66,0,0,1-1.7-3.48c0-.1,0-.2,0-.3s0-.2,0-.3a10.26,10.26,0,0,0,3.27-.89,4.59,4.59,0,0,0,2.21-1.85,3.71,3.71,0,0,0,1.76,1.8,1.84,1.84,0,0,1,.05.25,5.36,5.36,0,0,1,.1,1,4.78,4.78,0,0,1-1.66,3.74c1.44.76,2.41-.95,2.75-1.85a4.88,4.88,0,0,0,0-3.13,7.18,7.18,0,0,0-1.37-2.51A4.17,4.17,0,0,0,8.91,4c-2,0-2.46.86-3.32,1.73a8.15,8.15,0,0,0-1.52,3.5C3.77,11.38,5,14.49,7.08,13.24Z"/><path class="cls-2" d="M5.37,9.46c0,.1,0,.2,0,.3a7.79,7.79,0,0,0,2.9-1A6.41,6.41,0,0,0,10.82,6.5a.3.3,0,0,1,0-.08A4.59,4.59,0,0,1,8.65,8.27a10.26,10.26,0,0,1-3.27.89C5.37,9.26,5.37,9.36,5.37,9.46Z"/><path class="cls-6" d="M10.86,6.42a3,3,0,0,0,1.81,2.05,1.84,1.84,0,0,0-.05-.25A3.71,3.71,0,0,1,10.86,6.42Z"/><rect class="cls-2" x="21.21" y="11.11" width="4.86" height="2.67"/><path class="cls-2" d="M19.7,8.39a.44.44,0,0,1-.36-.08A1.89,1.89,0,0,1,18.64,7c-.13-.86.13-1.63.59-1.71h.2a.65.65,0,0,1,.29.16,2.06,2.06,0,0,1,.58,1.24C20.43,7.55,20.16,8.31,19.7,8.39Z"/><path class="cls-2" d="M28.8,7A1.64,1.64,0,0,1,28,8.37a.37.37,0,0,1-.23,0c-.46-.08-.73-.84-.6-1.71a2.17,2.17,0,0,1,.54-1.2A.73.73,0,0,1,28,5.29a.49.49,0,0,1,.24,0,0,0,0,0,1,0,0C28.67,5.37,28.93,6.13,28.8,7Z"/><path class="cls-2" d="M28.07,6.83a7,7,0,0,1-.16,1.54,6,6,0,0,1-1.81,3.31,3.8,3.8,0,0,1-2.49,1,3.72,3.72,0,0,1-2.4-.91,6,6,0,0,1-1.93-3.45,7.78,7.78,0,0,1,0-3,.83.83,0,0,1,0-.15.75.75,0,0,0,0,.16.65.65,0,0,1,.29.16,3.26,3.26,0,0,1,.59-2,2.69,2.69,0,0,1,1.91-1A16.86,16.86,0,0,1,25,2.18a2.16,2.16,0,0,1,1.5.48,3.47,3.47,0,0,0,1.14,2.82.7.7,0,0,1,.28-.19,1.65,1.65,0,0,1,.06.32A6.93,6.93,0,0,1,28.07,6.83Z"/><path class="cls-2" d="M28.17,5.28s0,0,0,0a.49.49,0,0,0-.24,0,.7.7,0,0,0-.28.19,3.47,3.47,0,0,1-1.14-2.82A2.16,2.16,0,0,0,25,2.18a16.86,16.86,0,0,0-2.82.29,2.69,2.69,0,0,0-1.91,1,3.26,3.26,0,0,0-.59,2,1.26,1.26,0,0,0-.44-.17,3.36,3.36,0,0,0,0-.36,1.74,1.74,0,0,0-.19-.52,2.94,2.94,0,0,1-.39-1c0-.32.26-.61.41-.86A5.24,5.24,0,0,1,23.4,0c1.41,0,3.35.55,3.24,2.54a.85.85,0,0,1,1.07-.07,1.58,1.58,0,0,1,.58,1.08A3.22,3.22,0,0,1,28.17,5.28Z"/><polygon class="cls-2" points="23.61 13.78 23.11 14.45 22.47 15.29 21.32 14.45 21.21 14.38 20.41 13.78 20.4 13.78 20.98 12.59 21.21 12.59 23.61 13.78"/><polygon class="cls-2" points="26.83 13.78 26.08 14.32 25.91 14.45 24.76 15.29 24.12 14.45 23.61 13.78 26.01 12.59 26.25 12.59 26.83 13.78"/><g class="cls-3"><polygon class="cls-4" points="21.24 14.39 21.21 14.38 21.21 14.37 21.21 14.37 21.24 14.39"/></g><g class="cls-3"><polygon class="cls-4" points="21.24 14.39 21.21 14.38 21.21 14.37 21.21 14.37 21.24 14.39"/></g><path class="cls-2" d="M27.78,14.12a4.21,4.21,0,0,1-4.09,2.34,4.18,4.18,0,0,1-4.09-2.37l.8-.3h0l.8.59h0l.1.08,0,0,.06,0h0l.22.16.83.61h0l.26-.34.38-.5,0-.06h0l.14-.18.14-.19.18-.24.19.24.18.24.14.19h0l.1.13.51.67,0,0,0,0,1-.74.11-.08.17-.13.75-.54Z"/><path class="cls-2" d="M25.8,14.56c0,.69-.27,1.11-.6.94l-.79-.42-.19-.1a.15.15,0,0,1-.14.12h-.79a.14.14,0,0,1-.13-.11l-.19.1c-.09.05-.44.23-.75.41s-.58-.25-.58-.94.26-1.11.58-.93.66.35.75.41l.19.09a.14.14,0,0,1,.13-.11h.79a.15.15,0,0,1,.14.12l.19-.1.79-.41C25.53,13.45,25.8,13.87,25.8,14.56Z"/><path class="cls-2" d="M34.61,21.6H12.83c0-5.37,3.8-6.57,3.8-6.57h0l.43-.16,2.74-1.07a3.94,3.94,0,0,0,3.89,2.37,4,4,0,0,0,3.88-2.34L30.81,15v0S34.61,16.23,34.61,21.6Z"/><polygon class="cls-2" points="16.13 21.6 16.13 19.8 16.84 21.6 16.13 21.6"/><polygon class="cls-2" points="31.34 21.6 31.34 19.8 30.62 21.6 31.34 21.6"/><path class="cls-2" d="M36.44,21.6H34.61c0-3.62-1.72-5.34-2.85-6.08l.06,0,1.92-.75A8.89,8.89,0,0,1,36.44,21.6Z"/></g></g></g></svg>